<?xml version="1.0" standalone="no"?>
<!DOCTYPE svg PUBLIC "-//W3C//DTD SVG 20010904//EN"
 "http://www.w3.org/TR/2001/REC-SVG-20010904/DTD/svg10.dtd">
<svg version="1.0" xmlns="http://www.w3.org/2000/svg"
 width="760.000000pt" height="400.000000pt" viewBox="0 0 760.000000 400.000000"
 preserveAspectRatio="xMidYMid meet">

<g transform="translate(0.000000,400.000000) scale(0.100000,-0.100000)"
fill="#000000" stroke="none">
<path d="M6846 3835 c-4 -14 -13 -25 -21 -25 -8 0 -19 -10 -26 -21 -16 -31 2
-66 35 -66 24 0 26 3 26 46 0 25 3 56 6 69 4 12 2 22 -4 22 -5 0 -13 -11 -16
-25z m2 -67 c-4 -29 -38 -38 -38 -10 0 22 8 32 27 32 9 0 13 -8 11 -22z"/>
<path d="M5995 3840 c3 -5 11 -10 16 -10 6 0 7 5 4 10 -3 6 -11 10 -16 10 -6
0 -7 -4 -4 -10z"/>
<path d="M6354 3841 c3 -5 1 -33 -4 -62 -7 -35 -7 -56 0 -63 7 -7 10 -1 10 16
0 34 9 58 22 58 6 0 8 -14 4 -35 -4 -22 -3 -35 4 -35 17 0 12 80 -5 86 -8 4
-15 15 -15 25 0 10 -5 19 -11 19 -5 0 -8 -4 -5 -9z"/>
<path d="M5998 3775 c-6 -49 -4 -64 8 -53 3 3 4 28 2 54 l-3 49 -7 -50z"/>
<path d="M6025 3800 c-3 -5 4 -10 16 -10 20 0 21 -1 5 -25 -24 -36 -20 -45 20
-45 23 0 33 4 28 11 -3 6 -15 9 -25 6 -24 -6 -24 -2 2 39 l21 34 -31 0 c-16 0
-33 -4 -36 -10z"/>
<path d="M6110 3800 c0 -5 7 -10 14 -10 13 0 13 -4 0 -35 l-14 -35 35 0 c19 0
35 4 35 9 0 5 -11 8 -25 5 -30 -5 -31 3 -5 36 27 34 25 40 -10 40 -16 0 -30
-4 -30 -10z"/>
<path d="M6190 3808 c0 -2 7 -25 15 -51 8 -26 12 -62 8 -80 -4 -22 -2 -29 5
-22 11 11 32 104 31 138 -1 19 -2 19 -13 -7 l-13 -29 -7 27 c-3 14 -11 26 -16
26 -6 0 -10 -1 -10 -2z"/>
<path d="M6270 3784 c-15 -37 -4 -64 26 -64 13 0 24 5 24 11 0 6 -9 8 -20 4
-16 -5 -20 -2 -20 17 0 13 4 29 9 37 8 13 12 13 27 0 15 -12 17 -12 12 1 -2 8
-14 16 -26 18 -16 3 -25 -4 -32 -24z"/>
<path d="M6421 3796 c-7 -8 -11 -27 -9 -43 2 -22 9 -29 31 -31 25 -3 27 -1 27
32 0 20 1 39 3 44 4 14 -40 13 -52 -2z m39 -23 c0 -10 -5 -25 -10 -33 -13 -21
-34 2 -25 29 8 25 35 28 35 4z"/>
<path d="M6490 3765 c0 -25 5 -45 10 -45 6 0 10 15 10 34 0 51 18 54 23 4 l4
-43 1 48 c2 44 0 47 -23 47 -23 0 -25 -4 -25 -45z"/>
<path d="M6580 3804 c0 -4 5 -24 12 -45 12 -43 28 -52 29 -16 0 21 1 21 11 -3
9 -24 10 -24 17 -5 17 43 21 75 11 75 -5 0 -10 -10 -10 -22 -1 -22 -1 -22 -15
-4 -14 19 -15 18 -24 -5 l-10 -24 0 28 c-1 15 -5 27 -11 27 -5 0 -10 -3 -10
-6z"/>
<path d="M6684 3796 c-3 -8 -4 -27 -2 -43 2 -20 8 -28 23 -28 22 0 30 24 21
61 -7 26 -33 33 -42 10z m31 -16 c9 -14 -4 -52 -16 -45 -12 8 -12 55 0 55 6 0
13 -5 16 -10z"/>
<path d="M6740 3765 c0 -25 4 -45 10 -45 5 0 9 8 8 18 -3 36 3 52 18 52 8 0
12 5 9 10 -3 6 -15 10 -26 10 -16 0 -19 -7 -19 -45z"/>
<path d="M6890 3775 c0 -21 -5 -35 -12 -35 -9 0 -9 -3 -1 -11 7 -7 9 -25 6
-42 -5 -23 -3 -29 8 -25 8 3 13 15 11 31 -3 20 2 26 20 29 15 2 24 11 26 26 2
12 7 22 11 22 5 0 6 -11 3 -25 -2 -15 0 -25 7 -25 6 0 11 16 11 35 0 24 5 35
15 35 8 0 15 5 15 10 0 6 -11 10 -25 10 -17 0 -25 -6 -25 -17 0 -11 -3 -14 -8
-7 -4 6 -19 14 -34 18 -27 6 -28 5 -28 -29z m50 -9 c0 -13 -7 -27 -16 -30 -23
-9 -28 -2 -20 29 8 32 36 33 36 1z"/>
<path d="M7030 3789 c-24 -44 12 -92 44 -59 8 9 4 10 -16 5 -35 -9 -35 0 -1
29 15 13 23 28 19 34 -11 18 -34 14 -46 -9z m30 -3 c0 -3 -4 -8 -10 -11 -5 -3
-10 -1 -10 4 0 6 5 11 10 11 6 0 10 -2 10 -4z"/>
<path d="M7101 3801 c-17 -11 -5 -31 19 -31 24 0 36 -18 22 -32 -8 -8 -16 -7
-28 3 -15 12 -17 12 -12 -1 2 -8 16 -15 29 -15 35 0 34 46 -1 56 -25 6 -23 8
20 22 8 3 4 6 -10 6 -14 0 -31 -3 -39 -8z"/>
<path d="M7177 3803 c-15 -15 -6 -33 17 -33 29 0 38 -11 26 -30 -8 -13 -13
-13 -31 -2 -18 11 -20 11 -17 0 6 -18 42 -22 57 -5 17 21 3 47 -28 48 l-26 1
30 13 30 14 -26 1 c-14 0 -29 -3 -32 -7z"/>
<path d="M7274 3797 c-3 -9 -4 -28 -2 -44 3 -30 32 -43 52 -23 8 9 4 10 -16 5
-31 -8 -37 9 -17 46 9 17 13 18 26 7 14 -11 15 -11 11 2 -6 20 -47 25 -54 7z"/>
<path d="M7347 3788 c-9 -34 3 -68 24 -68 23 0 35 40 19 69 -14 27 -36 27 -43
-1z m37 -13 c6 -18 -2 -45 -15 -45 -5 0 -9 14 -9 30 0 32 14 40 24 15z"/>
<path d="M7410 3765 c0 -50 16 -63 18 -14 1 41 12 51 12 11 0 -18 5 -32 11
-32 7 0 9 10 7 25 -3 14 -1 28 3 31 5 3 9 -11 9 -30 0 -20 5 -36 11 -36 6 0 9
17 7 43 -3 41 -4 42 -40 44 l-38 2 0 -44z"/>
<path d="M1940 3768 c0 -7 14 -38 30 -68 l30 -54 -42 -36 c-51 -44 -37 -62 22
-29 22 12 43 20 46 16 4 -3 27 -44 53 -89 44 -79 72 -103 79 -67 2 9 -17 56
-42 104 -25 49 -45 89 -43 90 32 16 57 39 57 50 0 19 -2 19 -48 -1 -41 -17
-34 -21 -92 60 -25 35 -50 47 -50 24z"/>
<path d="M1940 3531 c0 -6 4 -12 9 -16 16 -9 25 -94 12 -121 -13 -29 -47 -32
-56 -4 -16 49 -85 104 -85 67 0 -15 33 -81 51 -104 35 -41 90 -28 124 29 34
58 11 158 -35 158 -11 0 -20 -4 -20 -9z"/>
<path d="M1671 3461 c-12 -12 -21 -26 -21 -32 0 -7 -11 -8 -30 -4 -33 7 -33
13 3 -67 9 -20 18 -50 19 -67 2 -22 7 -31 20 -31 15 0 18 9 18 50 0 51 22 120
38 120 10 0 42 -64 42 -84 0 -17 38 -66 52 -66 21 0 0 82 -35 139 -40 64 -72
76 -106 42z"/>
<path d="M1475 3365 c-22 -8 -41 -15 -42 -15 -11 -1 -44 -88 -40 -106 2 -15
-1 -24 -8 -24 -7 0 -18 -7 -25 -15 -10 -12 -28 -15 -69 -13 -50 3 -56 5 -53
23 2 11 11 31 20 43 64 90 59 132 -8 67 -65 -63 -98 -148 -67 -173 6 -5 38
-13 69 -16 72 -8 124 11 134 48 6 24 7 24 29 10 14 -9 40 -14 66 -12 37 3 47
8 66 37 31 46 38 76 27 120 -11 42 -36 49 -99 26z m58 -49 c10 -25 -28 -81
-57 -84 -26 -3 -27 -1 -25 30 4 50 68 92 82 54z"/>
<path d="M512 3234 c-65 -32 -99 -80 -114 -161 -14 -79 -4 -142 32 -192 54
-75 170 -112 247 -79 66 28 152 99 192 159 23 34 41 66 41 73 0 14 -18 42 -23
36 -2 -3 -18 -26 -35 -51 -42 -62 -124 -135 -169 -150 -21 -6 -59 -9 -90 -6
-89 9 -129 48 -139 133 -12 95 29 175 108 215 38 19 46 41 17 47 -8 1 -38 -9
-67 -24z"/>
<path d="M951 3195 c-29 -34 -35 -55 -33 -115 3 -50 72 -77 125 -47 64 35 103
88 109 147 3 31 0 35 -27 41 -16 4 -55 7 -86 8 -53 1 -59 -1 -88 -34z m159
-10 c0 -3 -6 -21 -14 -40 -18 -43 -55 -67 -97 -63 -38 4 -44 21 -22 66 12 25
22 31 51 34 21 2 47 4 60 5 12 2 22 0 22 -2z"/>
<path d="M2135 3170 c-19 -21 -31 -95 -21 -133 5 -22 11 -23 77 -25 81 -1 134
19 162 62 25 38 20 53 -8 26 -18 -17 -40 -25 -80 -28 l-54 -4 6 52 c4 39 3 54
-8 61 -23 15 -55 10 -74 -11z m38 -60 c-3 -11 -9 -23 -14 -26 -10 -6 -12 29
-2 39 13 13 21 7 16 -13z"/>
<path d="M1994 3115 c-9 -14 -19 -46 -22 -70 -2 -25 -9 -48 -13 -51 -5 -3 -9
-1 -9 4 0 15 -52 34 -63 23 -6 -6 2 -24 25 -50 19 -23 40 -59 47 -81 8 -29 17
-40 31 -40 23 0 23 4 20 138 -1 54 2 92 8 92 5 0 19 -22 30 -49 22 -53 58 -83
68 -57 3 8 -10 48 -30 90 -38 84 -62 97 -92 51z"/>
<path d="M1702 2948 c-38 -27 -75 -96 -70 -134 2 -15 15 -36 29 -46 24 -18 32
-19 81 -9 55 12 92 39 117 88 14 27 15 83 1 83 -5 0 -10 6 -10 14 0 34 -101
36 -148 4z m121 -41 c15 -41 -62 -104 -120 -98 -24 2 -14 52 16 82 32 31 94
41 104 16z"/>
<path d="M1192 2858 c-8 -8 6 -30 56 -82 71 -75 125 -151 163 -229 18 -36 28
-47 46 -47 23 0 23 1 23 125 0 114 2 125 18 125 11 0 27 -16 40 -38 28 -51 55
-74 76 -66 15 6 15 9 3 23 -8 9 -18 26 -21 38 -10 30 -63 80 -92 86 -47 9 -63
-18 -66 -113 l-3 -85 -33 62 c-34 61 -113 151 -170 191 -21 16 -32 18 -40 10z"/>
<path d="M4120 2832 c0 -14 -22 -23 -117 -45 -285 -68 -422 -97 -476 -101 -32
-2 -61 -6 -64 -10 -14 -14 -32 -4 -42 24 -10 31 -28 39 -37 17 -3 -8 -1 -25 5
-39 8 -21 6 -27 -17 -40 -30 -17 -82 -31 -82 -23 0 4 4 15 10 25 7 14 18 17
42 14 25 -4 29 -2 18 5 -8 6 -23 11 -34 11 -11 0 -16 5 -13 14 9 22 -4 27 -27
11 -23 -17 -71 -20 -61 -5 4 6 10 8 15 5 10 -6 22 23 14 36 -10 16 -61 10 -88
-12 -25 -20 -28 -20 -158 -5 -73 9 -149 20 -168 26 -45 13 -97 13 -105 0 -3
-5 -1 -10 4 -10 6 0 11 -11 11 -25 0 -14 7 -41 14 -60 8 -19 11 -35 5 -35 -45
0 83 -62 176 -84 27 -7 21 -11 -73 -46 -111 -42 -224 -96 -403 -192 -118 -64
-279 -167 -279 -178 0 -4 -24 -6 -52 -6 -50 1 -53 3 -56 29 -5 38 -22 34 -22
-6 0 -25 -6 -37 -22 -46 -13 -7 -39 -35 -58 -64 -32 -47 -40 -52 -98 -67 -35
-8 -61 -18 -58 -21 3 -3 -1 -6 -9 -6 -8 0 -15 9 -15 19 0 18 -3 17 -32 -5 -37
-28 -92 -57 -107 -57 -5 0 -11 10 -13 23 -2 14 -11 23 -26 25 -23 4 -45 -15
-114 -99 -18 -22 -44 -47 -57 -56 -22 -14 -25 -14 -33 1 -14 25 -24 20 -52
-29 -15 -25 -37 -55 -50 -67 -63 -60 -132 -252 -143 -395 -3 -45 -11 -84 -17
-86 -6 -3 -58 0 -116 5 -174 15 -413 15 -417 1 -3 -7 2 -13 11 -13 14 0 16
-24 16 -198 0 -187 16 -386 40 -497 6 -27 15 -77 20 -110 5 -33 16 -80 24
-104 9 -24 13 -47 10 -52 -12 -20 221 -101 336 -118 303 -45 230 -43 1595 -38
960 4 1327 9 1435 19 108 10 364 13 1000 13 716 -1 841 1 770 11 -235 35
-1199 41 -2015 15 -221 -7 -765 -10 -1475 -8 -1172 4 -1196 4 -1370 47 -25 6
-53 12 -63 15 -9 2 -21 6 -26 10 -6 3 -35 7 -65 10 -68 5 -81 11 -65 31 9 11
8 14 -4 14 -11 0 -18 18 -26 63 -12 72 -13 119 -1 72 l8 -30 1 28 c0 16 4 26
9 24 4 -3 6 25 5 61 -4 94 17 255 38 309 7 16 13 38 15 50 1 13 14 41 27 63
20 34 26 38 31 24 4 -10 2 -22 -4 -28 -5 -5 -10 -15 -10 -20 0 -6 5 -4 11 4 8
12 10 9 6 -12 -2 -15 0 -25 4 -22 5 3 9 -4 9 -15 0 -12 -4 -21 -8 -21 -5 0 -6
-14 -4 -31 3 -18 8 -26 12 -19 4 6 10 -12 13 -41 4 -32 2 -58 -4 -65 -6 -8 -9
-19 -6 -26 4 -8 6 -7 6 5 1 9 5 17 9 17 4 0 14 -39 21 -88 7 -48 15 -98 18
-112 4 -20 2 -22 -6 -10 -16 23 -12 -2 5 -30 14 -23 14 -23 9 -2 -4 12 -3 22
2 22 4 0 8 18 8 40 1 22 -3 40 -7 40 -4 0 -8 10 -8 23 0 18 2 19 11 7 11 -16
11 -12 -12 90 -5 25 -12 70 -14 100 -3 30 -11 85 -19 123 -12 61 -12 66 2 55
13 -11 13 -8 -1 19 -10 18 -17 38 -17 46 0 38 -77 17 -88 -24 -3 -11 -2 -11 7
1 6 8 11 11 11 5 -1 -15 -27 -47 -32 -38 -3 4 -3 2 -1 -5 1 -7 -2 -23 -9 -35
-7 -12 -13 -26 -14 -32 -1 -5 -9 -32 -18 -58 -9 -26 -16 -55 -16 -65 0 -9 -4
-23 -9 -30 -4 -8 -9 68 -9 174 -1 103 -6 192 -11 197 -23 23 -31 -8 -31 -125
0 -67 -2 -119 -4 -117 -2 2 -6 60 -10 129 -4 69 -9 145 -12 169 l-5 44 47 -7
c26 -3 53 -6 60 -6 9 0 11 -6 7 -18 -6 -14 -4 -15 9 -4 12 10 28 10 74 2 33
-7 74 -11 93 -11 19 1 45 -6 57 -14 13 -8 31 -15 41 -14 12 1 10 3 -7 9 -17 5
5 8 66 9 50 1 93 -2 97 -5 3 -4 0 -19 -8 -35 -11 -21 -12 -35 -5 -54 13 -34
13 -48 -1 -39 -6 3 -3 -8 5 -25 11 -21 16 -53 14 -102 -1 -40 -5 -64 -8 -53
-4 10 -7 -33 -7 -96 0 -171 -13 -424 -22 -433 -10 -10 -2 -57 10 -57 5 0 12 0
17 0 4 -1 10 14 13 32 6 31 6 31 8 6 1 -34 17 -37 24 -6 41 174 41 668 1 835
-5 18 -1 22 23 25 15 2 44 0 63 -4 19 -4 291 -9 605 -13 584 -6 613 -8 765
-50 60 -16 110 -20 110 -7 0 4 -42 16 -92 25 -51 10 -113 24 -138 32 -45 15
-45 15 35 8 44 -5 123 -7 175 -6 467 12 1062 13 1194 2 83 -7 210 -13 281 -13
334 -1 915 -21 1154 -40 59 -5 62 3 4 14 -27 6 -5 8 77 10 63 1 129 4 145 5
17 1 88 4 160 5 l129 2 -2 -38 c-1 -22 4 -106 12 -188 11 -107 12 -155 4 -169
-6 -11 -14 -124 -18 -251 -5 -127 -12 -240 -16 -251 -7 -18 -6 -18 9 -6 9 7
17 25 18 40 1 20 4 16 15 -19 13 -44 13 -43 12 60 -2 123 3 246 8 210 14 -87
34 -116 61 -89 8 8 13 5 18 -10 3 -12 11 -21 16 -21 11 0 11 2 -2 56 -8 31
-16 44 -25 40 -9 -4 -15 3 -15 19 -1 14 -2 31 -3 38 -1 7 18 14 52 17 46 5 55
3 75 -18 26 -29 76 -52 111 -52 27 0 59 35 82 89 14 32 16 33 57 28 23 -3 53
-9 67 -12 23 -6 22 -5 -4 11 l-30 17 98 28 97 28 35 -21 c27 -16 44 -19 76
-14 23 4 47 11 53 15 27 21 107 40 131 31 32 -13 95 -13 127 -1 24 9 57 71 73
136 4 17 34 57 66 90 111 112 196 268 233 430 9 38 22 74 28 78 8 6 9 10 1 13
-7 3 -8 25 -1 72 21 154 -7 288 -82 393 -21 30 -36 59 -34 64 4 13 -116 120
-124 111 -3 -3 1 -14 10 -24 10 -10 17 -22 17 -25 0 -7 -94 -1 -159 9 -19 3
-45 13 -58 21 -19 13 -26 14 -32 4 -6 -9 -28 -10 -95 -1 -48 6 -95 15 -104 19
-9 5 -36 14 -60 20 -24 7 -57 27 -77 47 -49 49 -80 45 -112 -15 -1 -1 -46 11
-100 28 -281 88 -545 123 -730 95 -111 -16 -275 -62 -377 -105 -45 -19 -85
-29 -118 -29 -50 0 -50 0 -45 -27 4 -24 -2 -33 -42 -64 l-46 -35 -30 18 c-17
10 -36 18 -42 18 -22 0 -14 -27 12 -44 32 -21 31 -30 -1 -44 -14 -7 -23 -8
-20 -3 5 8 -50 37 -56 30 -4 -5 -37 28 -58 56 -13 16 -10 16 15 -3 31 -25 47
-14 24 15 -26 30 -150 112 -182 119 -17 3 -61 30 -97 59 -36 28 -81 61 -100
73 -154 92 -663 302 -732 302 -54 0 -19 16 82 39 123 28 392 102 387 108 -6 5
-324 -45 -402 -63 -81 -19 -95 -18 -95 6 0 30 -17 24 -29 -10 -14 -42 -40 -37
-78 15 -32 44 -32 45 -10 49 96 21 256 63 340 91 l102 34 28 -35 c26 -31 74
-64 93 -64 4 0 -3 12 -17 28 -57 62 -58 67 -10 43 41 -21 171 -55 179 -46 8 8
-10 25 -26 25 -9 1 -55 16 -101 34 -75 29 -83 34 -65 44 15 9 10 10 -28 5 -33
-4 -48 -2 -48 6 0 6 -4 11 -10 11 -5 0 -10 -8 -10 -18z m-1323 -138 c7 -15 9
-34 4 -47 -7 -19 -9 -18 -19 13 -21 59 -9 86 15 34z m202 -5 c57 -10 106 -20
107 -22 2 -2 -16 -29 -39 -61 l-42 -58 -45 6 c-25 3 -69 12 -99 21 -52 16 -53
17 -47 47 3 17 6 46 6 65 0 33 1 35 28 28 15 -4 74 -16 131 -26z m251 -33 c0
-26 -26 -65 -45 -68 -21 -4 -23 -2 -15 13 6 10 15 21 20 24 6 3 10 10 10 16 0
17 -24 9 -53 -18 -30 -27 -29 -15 1 20 13 14 82 26 82 13z m408 -46 l34 -45
-43 -11 c-42 -10 -45 -9 -58 15 -7 14 -23 36 -34 49 -18 20 -19 24 -7 33 33
21 73 5 108 -41z m-138 -34 c13 -25 22 -47 20 -50 -3 -2 -17 -7 -32 -11 -20
-5 -29 -3 -32 6 -20 75 -24 104 -13 111 15 9 28 -3 57 -56z m-107 20 c3 -7 8
-34 12 -59 l7 -46 -53 -15 c-29 -9 -53 -15 -55 -13 -5 6 24 98 39 121 19 28
42 34 50 12z m-93 -18 c0 -2 -7 -21 -15 -43 l-14 -40 -1 43 c0 31 4 42 15 42
8 0 15 -1 15 -2z m-94 -91 c0 -63 -7 -77 -39 -77 -23 0 -52 60 -44 92 6 22 33
38 77 47 3 1 5 -27 6 -62z m492 6 c6 -16 14 -45 18 -67 l7 -38 -44 7 c-57 9
-55 8 -65 52 -12 55 -11 56 16 64 45 13 57 9 68 -18z m-144 -48 l7 -30 -51 3
c-44 4 -50 7 -50 26 0 18 8 25 38 32 43 12 48 9 56 -31z m431 -14 c82 -33 197
-78 255 -100 106 -41 250 -120 344 -189 l50 -37 -53 -7 c-29 -5 -62 -14 -74
-21 -21 -12 -21 -12 10 -15 18 -2 57 2 89 7 44 8 60 8 75 -3 17 -12 13 -14
-42 -20 -137 -14 -146 -12 -244 59 -161 115 -346 201 -550 254 -43 12 -80 22
-81 24 -3 3 2 22 22 95 6 22 47 13 199 -47z m-995 14 c0 -25 8 -44 24 -60 l24
-24 -101 -40 c-160 -63 -291 -118 -432 -182 -128 -59 -130 -59 -184 -49 -30 5
-56 10 -58 10 -2 0 -3 7 -3 16 0 8 4 12 10 9 5 -3 54 26 107 64 111 80 375
217 503 260 110 38 110 38 110 -4z m70 -34 c-1 -34 -2 -35 -15 -17 -8 11 -15
36 -15 55 1 34 2 35 15 17 8 -11 15 -36 15 -55z m350 29 c0 -5 -12 -10 -27 -9
-25 0 -26 1 -8 9 27 12 35 12 35 0z m-305 -50 c3 -5 1 -10 -4 -10 -6 0 -11 5
-11 10 0 6 2 10 4 10 3 0 8 -4 11 -10z m288 -21 c4 -14 14 -19 36 -19 25 0 31
4 31 21 0 19 4 21 31 15 17 -3 44 -6 60 -6 25 0 28 -4 35 -45 9 -62 44 -58 44
6 0 33 85 22 96 -13 5 -17 8 -18 22 -5 15 14 25 13 87 -3 194 -49 393 -146
554 -267 41 -31 43 -34 23 -40 -40 -10 -23 -23 31 -23 67 0 93 -15 41 -23 -21
-4 -43 -2 -48 3 -16 16 -31 12 -77 -25 -58 -46 -133 -48 -92 -3 9 10 14 20 12
22 -7 7 -84 -33 -121 -64 -93 -76 -329 -497 -351 -624 -12 -74 -8 -71 -104
-60 -75 9 -54 25 25 20 l67 -5 -55 9 c-77 12 -134 15 -147 7 -6 -4 -35 -7 -65
-6 -29 0 -93 -4 -143 -10 -84 -10 -565 -16 -565 -7 0 2 -7 39 -15 81 -25 133
-72 239 -161 366 -69 98 -197 219 -231 219 -14 0 -37 7 -51 16 -36 21 -95 98
-79 103 7 2 19 12 28 23 10 13 32 22 62 25 25 3 45 10 44 16 -2 10 92 48 483
193 113 42 228 86 255 97 52 21 82 24 128 12 21 -6 26 -4 22 6 -4 11 5 13 39
11 33 -3 45 -9 49 -23z m2496 -242 c49 -42 92 -57 158 -56 l58 1 -55 12 c-57
12 -126 42 -136 57 -6 11 75 11 136 0 106 -19 325 -75 329 -84 2 -6 18 -26 35
-44 39 -43 81 -49 116 -16 l26 23 144 -30 c80 -17 183 -33 230 -36 47 -4 99
-13 115 -21 55 -27 87 -33 127 -22 21 5 38 14 38 19 0 22 36 8 72 -27 l38 -37
-37 -11 c-53 -15 -58 -45 -8 -45 53 0 95 -27 95 -62 0 -17 5 -28 14 -28 27 0
46 -187 30 -303 -6 -44 -8 -47 -53 -62 -26 -8 -63 -28 -82 -45 l-34 -29 43
-42 c23 -23 42 -51 42 -63 0 -36 -12 -66 -25 -66 -7 0 -16 -6 -18 -12 -3 -8
-6 -5 -6 5 -1 10 -6 17 -13 15 -13 -5 -13 -6 -54 -97 -16 -36 -41 -82 -56
-103 -16 -21 -28 -42 -28 -47 0 -15 -122 -136 -167 -166 -40 -26 -47 -27 -93
-18 -55 11 -76 3 -82 -32 -3 -17 -12 -20 -58 -23 -42 -2 -51 0 -40 8 12 9 11
10 -5 6 -11 -3 -78 -17 -149 -32 l-130 -27 -28 32 c-15 17 -32 31 -38 31 -17
0 -11 -26 10 -45 11 -10 18 -21 15 -23 -3 -3 -12 3 -20 14 -15 19 -16 19 -13
-1 3 -17 -6 -21 -62 -32 -101 -19 -108 -18 -127 22 -18 37 -59 52 -49 18 20
-67 19 -70 -15 -77 -57 -11 -56 -13 -63 102 -4 59 -16 181 -26 272 -10 90 -18
166 -17 167 2 1 42 3 90 4 108 2 102 17 -8 20 -44 1 -85 6 -92 11 -7 6 -19 5
-32 -1 -13 -7 -28 -8 -43 -2 -30 11 -157 28 -328 42 -78 7 -138 16 -142 23 -7
9 -12 65 -10 87 1 4 -5 40 -13 80 -25 138 -44 188 -90 245 -25 30 -52 68 -60
84 -9 17 -21 30 -28 30 -13 0 -138 147 -146 172 -2 7 4 9 20 4 54 -16 105 -18
116 -4 12 13 21 52 22 95 1 15 15 30 44 48 37 21 56 25 121 25 51 0 90 6 112
16 53 25 42 37 -26 29 -33 -4 -60 -5 -60 -2 0 6 95 39 120 42 8 1 23 6 33 10
12 5 38 -3 79 -24 33 -17 75 -31 92 -31 28 0 34 5 45 38 22 60 48 65 100 19z
m-131 1 c-4 -29 -34 -35 -59 -12 -19 17 -19 19 -2 25 10 4 28 8 41 8 19 1 23
-4 20 -21z m-1004 -54 c5 -14 4 -15 -9 -4 -17 14 -19 20 -6 20 5 0 12 -7 15
-16z m1875 -5 c12 -21 12 -22 -20 -15 -38 7 -43 11 -34 25 11 18 39 12 54 -10z
m-4534 -9 c3 -5 1 -10 -4 -10 -6 0 -11 5 -11 10 0 6 2 10 4 10 3 0 8 -4 11
-10z m21 -18 c-18 -16 -18 -16 -6 6 6 13 14 21 18 18 3 -4 -2 -14 -12 -24z
m74 13 c0 -8 -7 -15 -16 -15 -14 0 -14 3 -4 15 7 8 14 15 16 15 2 0 4 -7 4
-15z m87 9 c-3 -3 -12 -4 -19 -1 -8 3 -5 6 6 6 11 1 17 -2 13 -5z m-232 -35
c8 -37 3 -43 -52 -57 l-43 -10 22 32 c26 38 51 65 60 65 3 1 9 -13 13 -30z
m2821 -40 c4 -7 -75 30 -93 44 -7 5 -10 13 -7 18 5 8 89 -44 100 -62z m1643
44 c3 -2 0 -8 -5 -13 -12 -12 -51 -2 -58 16 -4 10 2 12 27 7 18 -3 34 -8 36
-10z m-1923 -44 c-26 -6 -43 -6 -50 1 -7 7 6 10 40 9 l49 -1 -39 -9z m-2340
-34 c20 -14 32 -25 25 -25 -19 0 -78 27 -85 39 -13 20 22 12 60 -14z m2557 -1
c3 -20 1 -24 -12 -19 -9 4 -29 12 -46 18 l-30 12 35 6 c19 3 38 7 41 8 4 0 9
-11 12 -25z m-2609 -5 c15 -12 25 -23 23 -26 -5 -4 -77 36 -77 43 0 11 30 2
54 -17z m2230 -5 c3 -8 2 -12 -4 -9 -5 3 -14 -3 -20 -14 -7 -13 -16 -18 -27
-14 -14 5 -12 10 11 30 32 27 32 27 40 7z m766 -11 c0 -34 -16 -46 -45 -36
l-28 9 34 22 c41 26 39 26 39 5z m-500 -3 c13 -9 13 -10 0 -10 -8 0 -22 5 -30
10 -13 9 -13 10 0 10 8 0 22 -5 30 -10z m-3080 -49 c0 -30 -14 -41 -56 -41
-31 0 -30 7 3 42 35 36 53 36 53 -1z m2610 -5 c0 -2 -8 -10 -17 -17 -16 -13
-17 -12 -4 4 13 16 21 21 21 13z m-2855 -145 c-8 -17 -21 -33 -27 -37 -8 -5
-7 1 3 16 8 14 19 31 23 38 15 25 16 11 1 -17z m6019 -463 c-16 -54 -34 -84
-34 -57 0 8 -11 26 -25 41 l-25 27 42 20 c24 11 46 20 50 20 4 1 0 -23 -8 -51z
m-3596 -84 c14 -3 22 -12 22 -24 0 -20 -8 -20 -427 -20 -464 0 -563 5 -563 26
0 11 39 14 203 15 250 1 408 7 416 15 6 6 311 -4 349 -12z m-2638 -29 c0 -21
-4 -25 -22 -21 -48 10 -104 19 -128 20 -121 9 -124 10 -30 16 189 12 180 13
180 -15z m1603 -12 c7 -10 -3 -13 -44 -12 -30 1 -43 4 -29 6 13 3 31 14 39 26
11 16 16 17 19 6 3 -8 9 -20 15 -26z m1111 21 c8 -21 8 -24 -3 -24 -5 0 -11 9
-14 20 -6 24 8 27 17 4z m-2614 -15 c0 -5 -4 -9 -10 -9 -5 0 -10 7 -10 16 0 8
5 12 10 9 6 -3 10 -10 10 -16z m4108 9 c-2 -8 7 -13 20 -12 12 0 22 -3 22 -8
0 -4 3 -7 8 -6 4 1 27 -4 52 -11 25 -7 72 -11 105 -9 33 2 74 1 90 -2 29 -6
28 -7 -15 -13 -66 -10 -280 -13 -280 -4 0 4 14 7 32 7 48 0 25 12 -49 26 -38
6 -56 12 -42 13 15 0 32 8 39 16 15 18 21 19 18 3z m-4138 -22 c0 -2 -7 -6
-15 -10 -8 -3 -15 -1 -15 4 0 6 7 10 15 10 8 0 15 -2 15 -4z m3628 -3 c-10 -2
-28 -2 -40 0 -13 2 -5 4 17 4 22 1 32 -1 23 -4z m1029 -39 c-3 -3 -12 -4 -19
-1 -8 3 -5 6 6 6 11 1 17 -2 13 -5z m1390 -92 c-27 -45 -30 -36 -9 27 14 45
18 50 22 30 4 -15 -1 -37 -13 -57z m-188 -284 c-11 -29 -23 -56 -25 -60 -3 -4
-31 -8 -62 -7 -48 0 -54 2 -38 12 11 7 47 33 80 59 34 25 62 47 63 47 2 1 -7
-22 -18 -51z m-214 -57 c2 -4 -9 -12 -26 -18 -29 -11 -34 -7 -23 20 5 14 39
13 49 -2z m-545 -129 c0 -20 -29 -44 -62 -51 -30 -7 -40 -5 -54 10 -10 11 -15
21 -13 23 2 2 31 8 64 13 33 6 61 11 63 12 1 0 2 -3 2 -7z"/>
<path d="M1025 2784 c-22 -8 -60 -31 -83 -52 -37 -31 -44 -43 -45 -75 -1 -30
5 -43 26 -60 14 -12 49 -56 76 -97 70 -107 104 -145 124 -137 9 3 17 11 17 16
0 5 -27 49 -59 98 l-59 88 45 6 c55 6 95 47 111 111 25 97 -43 141 -153 102z
m101 -44 c37 0 -5 -88 -58 -120 -43 -26 -76 -25 -105 2 -27 26 -29 49 -5 70
37 33 112 60 140 52 8 -2 20 -4 28 -4z"/>
<path d="M780 1079 c0 -11 4 -18 10 -14 5 3 7 12 3 20 -7 21 -13 19 -13 -6z"/>
<path d="M940 1090 c-21 -7 -21 -8 -5 -9 11 0 27 4 35 9 18 11 5 11 -30 0z"/>
<path d="M998 1073 c7 -3 16 -2 19 1 4 3 -2 6 -13 5 -11 0 -14 -3 -6 -6z"/>
<path d="M1048 1063 c6 -2 18 -2 25 0 6 3 1 5 -13 5 -14 0 -19 -2 -12 -5z"/>
<path d="M1140 1060 c0 -5 5 -10 11 -10 5 0 7 5 4 10 -3 6 -8 10 -11 10 -2 0
-4 -4 -4 -10z"/>
<path d="M3726 1061 c-8 -13 36 -20 164 -27 132 -6 133 7 1 25 -101 13 -158
14 -165 2z"/>
<path d="M938 1053 c6 -2 18 -2 25 0 6 3 1 5 -13 5 -14 0 -19 -2 -12 -5z"/>
<path d="M3103 1051 c-75 -19 -180 -100 -232 -177 -39 -59 -64 -167 -59 -251
l4 -66 -415 6 c-407 6 -610 18 -864 53 -102 14 -142 14 -126 1 13 -12 383 -78
479 -86 193 -17 714 -24 805 -10 132 19 122 22 154 -52 62 -145 164 -239 336
-305 98 -38 247 -40 350 -5 94 32 130 51 193 102 101 82 153 201 153 346 0 68
-4 93 -27 143 -50 112 -175 202 -325 233 -36 8 -92 27 -124 42 -50 25 -71 29
-164 31 -58 2 -120 -1 -138 -5z m324 -86 c57 -26 79 -32 89 -24 9 8 22 8 41 1
l28 -10 -26 -1 c-56 -2 -119 -66 -134 -138 -6 -28 -2 -38 23 -63 77 -77 234 6
236 126 1 18 5 30 11 26 22 -12 95 -74 95 -80 0 -4 -20 -20 -44 -37 -27 -18
-41 -34 -36 -39 6 -6 26 2 50 19 34 24 43 26 51 14 14 -22 11 -29 -15 -29 -14
0 -27 -4 -30 -9 -8 -12 17 -21 42 -15 15 5 20 -1 26 -26 8 -42 8 -110 0 -110
-4 0 -22 17 -39 38 -18 20 -36 34 -40 30 -11 -11 45 -88 62 -88 19 0 11 -54
-18 -120 l-20 -45 -22 35 c-29 47 -65 82 -77 75 -20 -12 -9 -33 40 -79 l50
-47 -55 -54 c-34 -34 -85 -69 -133 -92 -75 -37 -80 -38 -187 -38 -121 0 -174
13 -280 69 -78 41 -185 148 -221 223 -27 53 -29 67 -29 168 0 100 2 115 28
167 34 68 76 111 154 155 57 32 61 33 181 33 120 0 125 -1 199 -35z m223 -90
c0 -48 -38 -97 -88 -115 -56 -19 -77 -7 -76 46 2 50 31 74 90 74 37 0 44 3 44
20 0 13 5 18 15 14 9 -4 15 -19 15 -39z"/>
<path d="M3167 953 c-3 -5 -2 -26 2 -48 7 -47 34 -56 39 -13 5 42 -26 87 -41
61z"/>
<path d="M3310 925 c-10 -12 -10 -21 -1 -41 11 -25 37 -29 35 -6 -1 7 -2 23
-2 37 -2 28 -14 32 -32 10z"/>
<path d="M3062 858 c6 -16 55 -34 65 -24 10 10 -26 36 -50 36 -10 0 -17 -5
-15 -12z"/>
<path d="M2933 780 c-31 -18 -45 -50 -23 -50 6 0 10 4 10 9 0 6 25 18 55 27
30 10 55 21 55 26 0 16 -65 8 -97 -12z"/>
<path d="M3332 658 c-7 -7 -12 -25 -12 -40 0 -23 -4 -28 -24 -28 -14 0 -28 -5
-32 -11 -8 -14 13 -29 41 -29 13 0 25 -11 33 -30 8 -16 20 -30 29 -30 11 0 13
7 8 30 -6 28 -5 30 22 30 40 0 74 11 67 21 -2 5 -27 11 -54 15 -49 6 -50 8
-50 40 0 37 -11 49 -28 32z"/>
<path d="M2951 596 c-22 -40 -22 -66 -1 -66 12 0 50 73 50 95 0 29 -26 15 -49
-29z"/>
<path d="M3071 467 c-15 -19 -26 -77 -14 -77 9 0 43 63 43 80 0 14 -16 12 -29
-3z"/>
<path d="M3557 351 c-4 -19 -5 -36 -2 -39 10 -11 16 7 13 40 l-3 33 -8 -34z"/>
<path d="M3417 313 c-18 -37 -24 -60 -18 -66 23 -23 72 53 63 99 -2 13 -7 24
-11 23 -3 0 -19 -25 -34 -56z"/>
<path d="M3237 290 c-20 -30 -35 -56 -32 -58 11 -11 36 11 55 48 33 64 18 71
-23 10z"/>
<path d="M1048 1043 c6 -2 18 -2 25 0 6 3 1 5 -13 5 -14 0 -19 -2 -12 -5z"/>
<path d="M790 1031 c0 -6 4 -13 10 -16 6 -3 7 1 4 9 -7 18 -14 21 -14 7z"/>
<path d="M969 1023 c-10 -11 -10 -14 -1 -9 8 5 12 -1 12 -21 -1 -25 -2 -26
-14 -11 -7 10 -15 15 -18 13 -9 -10 47 -64 56 -54 14 13 57 -51 50 -74 -4 -12
-2 -17 4 -13 6 3 13 -8 17 -26 4 -18 11 -38 15 -43 17 -21 49 -159 43 -183 -4
-17 -2 -23 6 -18 7 5 11 -1 11 -17 0 -14 3 -39 7 -57 5 -30 4 -33 -13 -27 -18
7 -18 6 -1 -7 13 -10 16 -21 11 -41 -5 -19 -3 -26 4 -21 6 3 12 0 15 -6 2 -7
7 19 10 57 11 116 11 140 3 153 -4 7 -6 25 -5 40 1 15 -1 34 -4 42 -3 8 -13
39 -21 69 -9 30 -23 65 -32 79 -9 13 -13 34 -10 46 6 25 -20 70 -35 61 -5 -4
-24 10 -43 29 -18 20 -39 36 -45 36 -7 0 -9 5 -6 10 10 16 -1 11 -16 -7z m28
-58 c0 -8 -4 -12 -9 -9 -5 3 -6 10 -3 15 9 13 12 11 12 -6z m113 -57 c0 -4 -4
-8 -10 -8 -5 0 -10 7 -10 15 0 8 -5 15 -11 15 -5 0 -7 5 -3 12 5 7 11 5 21 -7
7 -11 13 -22 13 -27z"/>
<path d="M1018 1020 c20 -20 25 -19 17 2 -3 8 -12 15 -20 15 -12 0 -11 -4 3
-17z"/>
<path d="M888 1023 c7 -3 16 -2 19 1 4 3 -2 6 -13 5 -11 0 -14 -3 -6 -6z"/>
<path d="M893 1003 c9 -2 23 -2 30 0 6 3 -1 5 -18 5 -16 0 -22 -2 -12 -5z"/>
<path d="M4930 980 c-47 -4 -220 -21 -385 -39 -165 -17 -343 -34 -395 -37 -52
-4 -104 -10 -115 -14 -33 -12 187 -23 304 -16 120 8 478 48 651 72 72 11 197
18 333 19 120 1 220 5 223 7 16 17 -441 22 -616 8z"/>
<path d="M1967 970 c-180 -16 -421 -70 -401 -90 10 -10 149 7 289 34 144 28
358 31 540 7 88 -12 199 -29 248 -39 137 -28 103 -3 -53 40 -174 47 -421 66
-623 48z"/>
<path d="M771 924 c1 -21 5 -52 9 -69 5 -19 6 -6 3 35 -6 73 -14 94 -12 34z"/>
<path d="M807 943 c3 -7 6 -13 8 -13 2 0 5 6 8 13 3 8 -1 14 -8 14 -7 0 -11
-6 -8 -14z"/>
<path d="M946 947 c3 -10 9 -15 12 -12 3 3 0 11 -7 18 -10 9 -11 8 -5 -6z"/>
<path d="M972 898 c0 -22 2 -28 8 -18 6 10 8 3 7 -20 -1 -19 2 -78 5 -130 5
-62 4 -85 -2 -65 -9 29 -9 29 -4 -5 3 -19 6 -45 7 -57 1 -13 5 -23 8 -23 12 0
18 -73 8 -93 -7 -12 -7 -17 -1 -13 13 8 26 -47 17 -74 -3 -11 -2 -20 3 -20 5
0 12 -22 16 -50 5 -41 9 -48 24 -43 19 7 41 33 42 47 0 5 -9 -1 -19 -13 l-19
-22 -1 23 c0 13 -12 127 -26 253 -14 127 -27 258 -28 292 -2 50 -5 59 -15 50
-10 -8 -16 -7 -21 2 -5 7 -8 -1 -9 -21z"/>
<path d="M1211 894 c0 -11 3 -14 6 -6 3 7 2 16 -1 19 -3 4 -6 -2 -5 -13z"/>
<path d="M1147 867 c-3 -7 1 -24 9 -38 10 -17 13 -19 14 -7 0 9 -4 19 -10 23
-5 3 -7 12 -3 20 3 8 3 15 0 15 -3 0 -7 -6 -10 -13z"/>
<path d="M2260 865 c100 -12 169 -30 158 -41 -3 -3 -37 2 -74 11 -101 23 -237
30 -324 15 -111 -18 -130 -31 -130 -87 0 -27 6 -34 44 -53 41 -19 54 -20 207
-15 188 7 228 17 284 75 46 47 41 59 -41 90 -41 15 -76 20 -142 19 l-87 -2
105 -12z m90 -51 c47 -2 87 -3 89 -4 12 -1 -49 -55 -84 -73 -35 -19 -60 -22
-202 -25 -154 -4 -164 -3 -203 19 -25 14 -40 29 -38 38 8 39 123 63 258 54 52
-4 133 -8 180 -9z"/>
<path d="M1181 854 c0 -11 3 -14 6 -6 3 7 2 16 -1 19 -3 4 -6 -2 -5 -13z"/>
<path d="M856 833 c-6 -14 -5 -15 5 -6 7 7 10 15 7 18 -3 3 -9 -2 -12 -12z"/>
<path d="M1041 833 c-1 -6 4 -15 9 -18 6 -4 8 -10 5 -15 -3 -4 -1 -19 4 -32 7
-19 8 -16 8 19 0 23 -3 40 -8 38 -4 -3 -10 1 -12 7 -4 9 -6 10 -6 1z"/>
<path d="M851 774 c0 -11 3 -14 6 -6 3 7 2 16 -1 19 -3 4 -6 -2 -5 -13z"/>
<path d="M762 760 c0 -14 2 -19 5 -12 2 6 2 18 0 25 -3 6 -5 1 -5 -13z"/>
<path d="M886 765 c4 -8 8 -15 10 -15 2 0 4 7 4 15 0 8 -4 15 -10 15 -5 0 -7
-7 -4 -15z"/>
<path d="M1176 764 c-3 -8 -1 -24 4 -35 13 -24 16 -24 16 0 0 11 -4 17 -9 14
-5 -3 -6 4 -2 16 7 24 0 29 -9 5z"/>
<path d="M832 720 c0 -19 2 -27 5 -17 2 9 2 25 0 35 -3 9 -5 1 -5 -18z"/>
<path d="M856 723 c-6 -14 -5 -15 5 -6 7 7 10 15 7 18 -3 3 -9 -2 -12 -12z"/>
<path d="M4330 722 c0 -13 64 -30 170 -44 137 -19 889 -17 1180 2 l225 15
-655 7 c-360 3 -702 11 -759 17 -124 13 -161 14 -161 3z"/>
<path d="M900 647 c4 -41 5 -41 8 -8 2 18 0 37 -5 42 -5 5 -6 -11 -3 -34z"/>
<path d="M921 674 c0 -11 3 -14 6 -6 3 7 2 16 -1 19 -3 4 -6 -2 -5 -13z"/>
<path d="M852 660 c0 -14 2 -19 5 -12 2 6 2 18 0 25 -3 6 -5 1 -5 -13z"/>
<path d="M3941 601 c-10 -7 -10 -10 -1 -16 20 -12 627 -19 615 -7 -24 23 -580
45 -614 23z"/>
<path d="M1131 544 c0 -11 3 -14 6 -6 3 7 2 16 -1 19 -3 4 -6 -2 -5 -13z"/>
<path d="M1070 504 c0 -10 5 -26 10 -34 8 -11 9 -7 4 15 -8 37 -14 45 -14 19z"/>
<path d="M4674 475 c-40 -7 -106 -23 -148 -35 -70 -21 -76 -25 -76 -50 0 -24
6 -29 58 -44 182 -53 594 -59 783 -11 l54 14 -50 -4 c-27 -3 -141 -7 -252 -11
-236 -8 -427 7 -513 39 l-55 20 33 14 c38 15 174 43 213 43 14 0 34 9 44 20
17 19 17 20 -1 19 -10 0 -51 -7 -90 -14z"/>
<path d="M1093 400 c0 -25 2 -35 4 -22 2 12 2 32 0 45 -2 12 -4 2 -4 -23z"/>
<path d="M5403 406 c41 -32 286 -54 426 -40 79 9 79 24 -1 24 -35 0 -135 7
-223 15 -88 8 -173 15 -190 15 -27 -1 -28 -2 -12 -14z"/>
<path d="M1386 345 c8 -20 47 -31 209 -59 257 -45 356 -51 543 -37 159 12 449
54 461 67 7 7 -78 -1 -214 -19 -53 -7 -202 -12 -360 -12 -282 1 -374 10 -550
55 -93 24 -96 24 -89 5z"/>
<path d="M1135 310 c3 -5 8 -10 11 -10 2 0 4 5 4 10 0 6 -5 10 -11 10 -5 0 -7
-4 -4 -10z"/>
<path d="M3962 308 c2 -6 33 -23 69 -36 52 -20 86 -25 179 -28 l115 -3 -96 14
c-53 8 -131 25 -173 39 -86 29 -99 31 -94 14z"/>
<path d="M1107 303 c-4 -3 -7 -13 -7 -22 1 -13 3 -13 11 2 11 19 8 33 -4 20z"/>
<path d="M1060 260 c0 -5 5 -10 10 -10 6 0 10 5 10 10 0 6 -4 10 -10 10 -5 0
-10 -4 -10 -10z"/>
<path d="M1150 251 c0 -6 4 -13 10 -16 6 -3 7 1 4 9 -7 18 -14 21 -14 7z"/>
<path d="M945 230 c11 -5 14 -9 7 -9 -7 -1 -10 -6 -6 -12 4 -8 9 -7 15 2 10
17 2 29 -19 28 -14 0 -13 -2 3 -9z"/>
</g>
</svg>
