<svg width="118" height="61" viewBox="0 0 118 61" fill="none" xmlns="http://www.w3.org/2000/svg">
<path d="M35.2306 34.0782L26.7617 19.6518H31.0526L18.9703 0L6.88802 19.6518H11.066L2.48419 34.0782H35.2306Z" fill="#09A94E"/>
<path d="M43.2478 60.6592V44.6425H53.0717V46.0056H44.8287V52.0261H52.3942V53.3892H44.8287V60.6592H43.2478Z" fill="#09A94E"/>
<path d="M71.7033 60.6592H70.1224V44.6425H75.9942C79.2689 44.6425 81.3014 46.46 81.3014 49.2998C81.3014 51.5717 79.9464 53.2756 77.8009 53.8436L81.866 60.6592H80.0593L76.22 54.0708C76.1071 54.0708 76.1071 54.0708 75.9942 54.0708H71.8162V60.6592H71.7033ZM71.7033 52.7076H75.8813C78.2526 52.7076 79.7205 51.4581 79.7205 49.2998C79.7205 47.2551 78.2526 45.892 75.8813 45.892H71.7033V52.7076Z" fill="#09A94E"/>
<path d="M93.1579 60.6592H83.1081V44.6425H93.1579V46.0056H84.689V51.7989H92.7062V53.162H84.689V59.2961H93.1579V60.6592Z" fill="#09A94E"/>
<path d="M95.4163 56.4563C95.6421 58.2738 97.5617 59.5233 100.046 59.5233C102.53 59.5233 104.337 58.1602 104.337 56.4563C104.337 54.9795 103.208 53.9572 100.611 53.3892L98.6909 52.9348C95.5292 52.1397 94.2871 50.8902 94.2871 48.7319C94.2871 46.1192 96.5454 44.3017 99.933 44.3017C103.095 44.3017 105.466 46.1192 105.579 48.5047H103.998C103.772 46.8008 102.191 45.6648 99.8201 45.6648C97.4488 45.6648 95.755 46.9144 95.755 48.6183C95.755 49.9814 96.7713 50.7766 99.2555 51.4581L100.949 51.9125C104.337 52.7077 105.805 54.0708 105.805 56.3427C105.805 59.1825 103.433 61 99.8201 61C96.4325 61 93.9483 59.1825 93.7225 56.5699H95.4163V56.4563Z" fill="#09A94E"/>
<path d="M110.886 60.6592V46.0056H105.353V44.6425H118V46.0056H112.467V60.6592H110.886Z" fill="#09A94E"/>
<path d="M68.5416 52.5941C68.5416 57.7058 65.7186 60.8864 61.089 60.8864C56.4593 60.8864 53.6364 57.7058 53.6364 52.5941C53.6364 47.4823 56.4593 44.3017 61.089 44.3017C65.7186 44.3017 68.5416 47.4823 68.5416 52.5941ZM55.3301 52.5941C55.3301 56.797 57.5885 59.5233 61.2019 59.5233C64.8153 59.5233 67.0737 56.797 67.0737 52.5941C67.0737 48.3911 64.8153 45.6648 61.2019 45.6648C57.5885 45.7784 55.3301 48.3911 55.3301 52.5941Z" fill="#09A94E"/>
<path d="M49.1196 25.7858C52.2814 25.7858 54.4268 27.8305 54.4268 30.784C54.4268 33.7374 52.2814 35.7821 49.1196 35.7821H44.8287V41.8026H43.2479V25.7858H49.1196ZM44.8287 34.419H48.7809C51.378 34.419 52.8459 33.0558 52.8459 30.784C52.8459 28.5121 51.378 27.149 48.7809 27.149H44.8287V34.419Z" fill="#2173EA"/>
<path d="M57.2497 36.1229C57.2497 38.8491 59.1694 40.6666 62.2182 40.6666C65.267 40.6666 67.1866 38.8491 67.1866 36.1229V25.7858H68.7675V36.2365C68.7675 39.7579 66.2832 42.0298 62.2182 42.0298C58.1531 42.0298 55.6689 39.6443 55.6689 36.2365V25.7858H57.2497V36.1229Z" fill="#2173EA"/>
<path d="M71.1387 41.689V25.7858H72.7196L82.5435 39.0763H82.6564V25.7858H84.2373V41.8026H82.6564L72.8325 28.5121H72.7196V41.8026H71.1387V41.689Z" fill="#2173EA"/>
<path d="M90.8995 41.689V27.149H85.2536V25.7858H98.1263V27.149H92.4804V41.8026H90.8995V41.689Z" fill="#2173EA"/>
<path d="M112.241 33.7374C112.241 38.8492 109.418 42.0298 104.789 42.0298C100.159 42.0298 97.3359 38.8492 97.3359 33.7374C97.3359 28.6257 100.159 25.4451 104.789 25.4451C109.418 25.4451 112.241 28.6257 112.241 33.7374ZM99.0297 33.7374C99.0297 37.9404 101.288 40.6667 104.901 40.6667C108.515 40.6667 110.773 37.9404 110.773 33.7374C110.773 29.5345 108.515 26.8082 104.901 26.8082C101.288 26.8082 99.0297 29.5345 99.0297 33.7374Z" fill="#2173EA"/>
<path d="M26.5359 29.1936V19.6517H23.0354V23.4003L18.9703 16.8119L0 47.5959H10.5014V60.6592H16.0344V53.162H21.6804V60.6592H27.3263V47.5959H37.9407L26.5359 29.1936Z" fill="#2173EA"/>
</svg>
